<svg width="400" height="220" viewBox="0 0 400 220" fill="none" xmlns="http://www.w3.org/2000/svg">
<style>
  .text {
    fill: #141414;
    font-family: "Montserrat", sans-serif;
    font-weight: 600;
    font-size: 18px;
  }
</style>
<path d="M0 20C0 8.9543 8.95431 0 20 0H380C391.046 0 400 8.95431 400 20V200C400 211.046 391.046 220 380 220H20C8.95431 220 0 211.046 0 200V20Z" fill="url(#paint0_linear_107_207321)"/>
<rect x="181" y="67" width="38" height="38" rx="19" fill="white"/>
<path d="M201.529 80.8V92H199.449V82.544H197.081V80.8H201.529Z" fill="#0032FF"/>
<rect x="181" y="67" width="38" height="38" rx="19" stroke="#0032FF" stroke-width="2"/>
<rect x="125" y="107" width="38" height="38" rx="19" fill="white"/>
<path d="M145.529 120.8V132H143.449V122.544H141.081V120.8H145.529Z" fill="#0032FF"/>
<rect x="125" y="107" width="38" height="38" rx="19" stroke="#0032FF" stroke-width="2"/>
<rect x="237" y="107" width="38" height="38" rx="19" fill="white"/>
<path d="M260.16 130.24V132H251.904V130.608L256.352 126.384C256.853 125.904 257.189 125.488 257.36 125.136C257.541 124.773 257.632 124.416 257.632 124.064C257.632 123.541 257.456 123.141 257.104 122.864C256.752 122.587 256.234 122.448 255.552 122.448C254.41 122.448 253.536 122.837 252.928 123.616L251.472 122.496C251.909 121.909 252.496 121.456 253.232 121.136C253.978 120.805 254.81 120.64 255.728 120.64C256.944 120.64 257.914 120.928 258.64 121.504C259.365 122.08 259.728 122.864 259.728 123.856C259.728 124.464 259.6 125.035 259.344 125.568C259.088 126.101 258.597 126.709 257.872 127.392L254.88 130.24H260.16Z" fill="#0032FF"/>
<rect x="237" y="107" width="38" height="38" rx="19" stroke="#0032FF" stroke-width="2"/>
<rect x="97" y="155" width="38" height="38" rx="19" fill="white"/>
<path d="M116.816 173.424C117.85 173.552 118.64 173.904 119.184 174.48C119.728 175.056 120 175.776 120 176.64C120 177.291 119.834 177.883 119.504 178.416C119.173 178.949 118.672 179.376 118 179.696C117.338 180.005 116.528 180.16 115.568 180.16C114.768 180.16 113.994 180.048 113.248 179.824C112.512 179.589 111.882 179.269 111.36 178.864L112.256 177.248C112.661 177.589 113.152 177.861 113.728 178.064C114.314 178.256 114.917 178.352 115.536 178.352C116.272 178.352 116.848 178.203 117.264 177.904C117.69 177.595 117.904 177.179 117.904 176.656C117.904 176.133 117.701 175.728 117.296 175.44C116.901 175.141 116.293 174.992 115.472 174.992H114.448V173.568L116.992 170.544H111.904V168.8H119.536V170.192L116.816 173.424Z" fill="#0032FF"/>
<rect x="97" y="155" width="38" height="38" rx="19" stroke="#0032FF" stroke-width="2"/>
<rect x="153" y="155" width="38" height="38" rx="19" fill="white"/>
<path d="M171.536 173.136C173.115 173.136 174.283 173.445 175.04 174.064C175.797 174.672 176.176 175.504 176.176 176.56C176.176 177.232 176.011 177.84 175.68 178.384C175.349 178.928 174.853 179.36 174.192 179.68C173.531 180 172.715 180.16 171.744 180.16C170.944 180.16 170.171 180.048 169.424 179.824C168.677 179.589 168.048 179.269 167.536 178.864L168.416 177.248C168.832 177.589 169.328 177.861 169.904 178.064C170.491 178.256 171.093 178.352 171.712 178.352C172.448 178.352 173.024 178.203 173.44 177.904C173.867 177.595 174.08 177.173 174.08 176.64C174.08 176.064 173.851 175.632 173.392 175.344C172.944 175.045 172.171 174.896 171.072 174.896H168.368L168.944 168.8H175.52V170.544H170.704L170.464 173.136H171.536Z" fill="#0032FF"/>
<rect x="153" y="155" width="38" height="38" rx="19" stroke="#0032FF" stroke-width="2"/>
<rect x="209" y="155" width="38" height="38" rx="19" fill="white"/>
<path d="M230.749 174.112C231.336 174.379 231.784 174.741 232.093 175.2C232.413 175.648 232.573 176.176 232.573 176.784C232.573 177.467 232.381 178.064 231.997 178.576C231.624 179.088 231.091 179.483 230.397 179.76C229.704 180.027 228.899 180.16 227.981 180.16C227.064 180.16 226.259 180.027 225.565 179.76C224.883 179.483 224.355 179.088 223.981 178.576C223.608 178.064 223.421 177.467 223.421 176.784C223.421 176.176 223.576 175.648 223.885 175.2C224.195 174.741 224.637 174.379 225.213 174.112C224.765 173.867 224.419 173.547 224.173 173.152C223.939 172.747 223.821 172.283 223.821 171.76C223.821 171.131 223.992 170.581 224.333 170.112C224.685 169.643 225.176 169.28 225.805 169.024C226.435 168.768 227.16 168.64 227.981 168.64C228.813 168.64 229.544 168.768 230.173 169.024C230.803 169.28 231.293 169.643 231.645 170.112C231.997 170.581 232.173 171.131 232.173 171.76C232.173 172.283 232.051 172.741 231.805 173.136C231.56 173.531 231.208 173.856 230.749 174.112ZM227.981 170.272C227.331 170.272 226.813 170.411 226.429 170.688C226.056 170.965 225.869 171.355 225.869 171.856C225.869 172.336 226.056 172.72 226.429 173.008C226.813 173.285 227.331 173.424 227.981 173.424C228.643 173.424 229.165 173.285 229.549 173.008C229.933 172.72 230.125 172.336 230.125 171.856C230.125 171.355 229.928 170.965 229.533 170.688C229.149 170.411 228.632 170.272 227.981 170.272ZM227.981 178.528C228.749 178.528 229.357 178.368 229.805 178.048C230.253 177.728 230.477 177.285 230.477 176.72C230.477 176.165 230.253 175.728 229.805 175.408C229.357 175.088 228.749 174.928 227.981 174.928C227.213 174.928 226.611 175.088 226.173 175.408C225.736 175.728 225.517 176.165 225.517 176.72C225.517 177.285 225.736 177.728 226.173 178.048C226.611 178.368 227.213 178.528 227.981 178.528Z" fill="#0032FF"/>
<rect x="209" y="155" width="38" height="38" rx="19" stroke="#0032FF" stroke-width="2"/>
<rect x="265" y="155" width="38" height="38" rx="19" fill="white"/>
<path d="M280.873 168.8V180H278.793V170.544H276.425V168.8H280.873ZM287.863 173.424C288.897 173.552 289.687 173.904 290.231 174.48C290.775 175.056 291.047 175.776 291.047 176.64C291.047 177.291 290.881 177.883 290.551 178.416C290.22 178.949 289.719 179.376 289.047 179.696C288.385 180.005 287.575 180.16 286.615 180.16C285.815 180.16 285.041 180.048 284.295 179.824C283.559 179.589 282.929 179.269 282.407 178.864L283.303 177.248C283.708 177.589 284.199 177.861 284.775 178.064C285.361 178.256 285.964 178.352 286.583 178.352C287.319 178.352 287.895 178.203 288.311 177.904C288.737 177.595 288.951 177.179 288.951 176.656C288.951 176.133 288.748 175.728 288.343 175.44C287.948 175.141 287.34 174.992 286.519 174.992H285.495V173.568L288.039 170.544H282.951V168.8H290.583V170.192L287.863 173.424Z" fill="#0032FF"/>
<rect x="265" y="155" width="38" height="38" rx="19" stroke="#0032FF" stroke-width="2"/>
<text x='129' y='41' class='text'>Fibonacci-Folge</text>
<path d="M20 1H380V-1H20V1ZM399 20V200H401V20H399ZM380 219H20V221H380V219ZM1 200V20H-1V200H1ZM20 219C9.50659 219 1 210.493 1 200H-1C-1 211.598 8.40203 221 20 221V219ZM399 200C399 210.493 390.493 219 380 219V221C391.598 221 401 211.598 401 200H399ZM380 1C390.493 1 399 9.50659 399 20H401C401 8.40202 391.598 -1 380 -1V1ZM20 -1C8.40202 -1 -1 8.40201 -1 20H1C1 9.50658 9.50659 1 20 1V-1Z" fill="#141414"/>
<defs>
<linearGradient id="paint0_linear_107_207321" x1="479" y1="-48" x2="-80.5" y2="263.5" gradientUnits="userSpaceOnUse">
<stop stop-color="#82CEFF"/>
<stop offset="1" stop-color="#FF6B9B"/>
</linearGradient>
</defs>
</svg>
