<svg width="400" height="220" viewBox="0 0 400 220" fill="none" xmlns="http://www.w3.org/2000/svg">
<style>
  .text {
    fill: #141414;
    font-family: "Montserrat", sans-serif;
    font-weight: 600;
    font-size: 18px;
  }
</style>
<path d="M0 20C0 8.9543 8.95431 0 20 0H380C391.046 0 400 8.95431 400 20V200C400 211.046 391.046 220 380 220H20C8.95431 220 0 211.046 0 200V20Z" fill="url(#paint0_linear_107_207306)"/>
<rect x="69" y="101" width="38" height="38" rx="19" fill="white"/>
<path d="M92.9794 114.8V126H90.8994V121.2H85.1074V126H83.0274V114.8H85.1074V119.424H90.8994V114.8H92.9794Z" fill="#0032FF"/>
<rect x="69" y="101" width="38" height="38" rx="19" stroke="#0032FF" stroke-width="2"/>
<rect x="125" y="101" width="38" height="38" rx="19" fill="white"/>
<path d="M148.545 124.256V126H140.145V114.8H148.321V116.544H142.225V119.456H147.633V121.168H142.225V124.256H148.545Z" fill="#0032FF"/>
<rect x="125" y="101" width="38" height="38" rx="19" stroke="#0032FF" stroke-width="2"/>
<rect x="181" y="101" width="38" height="38" rx="19" fill="white"/>
<path d="M196.715 114.8H198.795V124.24H204.651V126H196.715V114.8Z" fill="#0032FF"/>
<rect x="181" y="101" width="38" height="38" rx="19" stroke="#0032FF" stroke-width="2"/>
<rect x="237" y="101" width="38" height="38" rx="19" fill="white"/>
<path d="M252.715 114.8H254.795V124.24H260.651V126H252.715V114.8Z" fill="#0032FF"/>
<rect x="237" y="101" width="38" height="38" rx="19" stroke="#0032FF" stroke-width="2"/>
<rect x="293" y="101" width="38" height="38" rx="19" fill="white"/>
<path d="M312.002 126.16C310.86 126.16 309.831 125.915 308.914 125.424C307.996 124.923 307.276 124.235 306.754 123.36C306.231 122.475 305.97 121.488 305.97 120.4C305.97 119.312 306.231 118.331 306.754 117.456C307.276 116.571 307.996 115.883 308.914 115.392C309.831 114.891 310.86 114.64 312.002 114.64C313.143 114.64 314.172 114.891 315.09 115.392C316.007 115.883 316.727 116.565 317.25 117.44C317.772 118.315 318.034 119.301 318.034 120.4C318.034 121.499 317.772 122.485 317.25 123.36C316.727 124.235 316.007 124.923 315.09 125.424C314.172 125.915 313.143 126.16 312.002 126.16ZM312.002 124.336C312.748 124.336 313.42 124.171 314.018 123.84C314.615 123.499 315.084 123.029 315.426 122.432C315.767 121.824 315.938 121.147 315.938 120.4C315.938 119.653 315.767 118.981 315.426 118.384C315.084 117.776 314.615 117.307 314.018 116.976C313.42 116.635 312.748 116.464 312.002 116.464C311.255 116.464 310.583 116.635 309.986 116.976C309.388 117.307 308.919 117.776 308.578 118.384C308.236 118.981 308.066 119.653 308.066 120.4C308.066 121.147 308.236 121.824 308.578 122.432C308.919 123.029 309.388 123.499 309.986 123.84C310.583 124.171 311.255 124.336 312.002 124.336Z" fill="#0032FF"/>
<rect x="293" y="101" width="38" height="38" rx="19" stroke="#0032FF" stroke-width="2"/>
<path d="M20 1H380V-1H20V1ZM399 20V200H401V20H399ZM380 219H20V221H380V219ZM1 200V20H-1V200H1ZM20 219C9.50659 219 1 210.493 1 200H-1C-1 211.598 8.40203 221 20 221V219ZM399 200C399 210.493 390.493 219 380 219V221C391.598 221 401 211.598 401 200H399ZM380 1C390.493 1 399 9.50659 399 20H401C401 8.40202 391.598 -1 380 -1V1ZM20 -1C8.40202 -1 -1 8.40201 -1 20H1C1 9.50658 9.50659 1 20 1V-1Z" fill="#141414"/>
<text x='182' y='41' class='text'>Zeile</text>
<defs>
<linearGradient id="paint0_linear_107_207306" x1="479" y1="-48" x2="-80.5" y2="263.5" gradientUnits="userSpaceOnUse">
<stop stop-color="#82CEFF"/>
<stop offset="1" stop-color="#FF6B9B"/>
</linearGradient>
</defs>
</svg>
